<svg xmlns="http://www.w3.org/2000/svg" viewBox="0 0 128 128" role="img" aria-label="JC">
  <defs>
    <linearGradient id="bg" x1="0" y1="0" x2="1" y2="1">
      <stop offset="0" stop-color="#0b1426" />
      <stop offset="1" stop-color="#04060d" />
    </linearGradient>
    <linearGradient id="text" x1="0" y1="0" x2="1" y2="1">
      <stop offset="0" stop-color="#2997ff" />
      <stop offset="1" stop-color="#3ecf8e" />
    </linearGradient>
  </defs>
  <rect width="128" height="128" rx="28" fill="url(#bg)"/>
  <path d="M 40 30 H 56 V 78 Q 56 96 40 96 Q 28 96 24 86 L 38 80 Q 40 84 42 84 Q 44 84 44 78 V 30 Z" fill="url(#text)"/>
  <path d="M 108 50 Q 102 30 78 30 Q 56 30 56 62 Q 56 96 78 96 Q 102 96 108 76 L 92 76 Q 88 84 78 84 Q 70 84 70 62 Q 70 42 78 42 Q 88 42 92 50 Z" fill="url(#text)"/>
</svg>
