<svg xmlns="http://www.w3.org/2000/svg" viewBox="0 0 128 128" role="img" aria-label="JCG">
    <defs>
        <linearGradient id="bg" x1="18" y1="12" x2="110" y2="116" gradientUnits="userSpaceOnUse">
            <stop stop-color="#2997ff" />
            <stop offset="0.58" stop-color="#0066cc" />
            <stop offset="1" stop-color="#031a38" />
        </linearGradient>
        <radialGradient id="glow" cx="38" cy="32" r="78" gradientUnits="userSpaceOnUse">
            <stop stop-color="#ffffff" stop-opacity="0.38" />
            <stop offset="1" stop-color="#ffffff" stop-opacity="0" />
        </radialGradient>
    </defs>
    <rect width="128" height="128" rx="30" fill="url(#bg)" />
    <rect width="128" height="128" rx="30" fill="url(#glow)" />
    <path d="M29 82c5.2 4.8 11.5 7.2 18.7 7.2 10.4 0 16.8-6 16.8-17.3V34.5H50.6v36.6c0 4.2-2 6.5-5.8 6.5-3.2 0-6.1-1.4-9-4.4L29 82Zm45.9 7.2h14V65.5h27.6V53.7H88.9v-7.4h29.6V34.5H74.9v54.7Z" fill="#fff" />
    <path d="M82.4 88.6c-5.2 0-9.7-1.2-13.5-3.7-3.8-2.4-6.8-5.8-8.9-10.2l10.7-6.2c2.4 5.3 6.3 8 11.9 8 3.2 0 5.8-.8 7.7-2.5 1.9-1.7 2.9-4.2 2.9-7.4 0-3.2-1-5.6-3-7.4-2-1.8-4.7-2.7-8.1-2.7-3.6 0-6.8 1.2-9.7 3.7l-7.1-8.6c4.8-4.7 10.9-7.1 18.2-7.1 7.1 0 12.8 2 17 6.1 4.2 4 6.3 9.4 6.3 16.1 0 6.8-2.1 12.2-6.2 16.2-4.2 3.8-9.6 5.7-16.2 5.7Z" fill="#dbeafe" opacity="0.92" />
</svg>
