<svg xmlns="http://www.w3.org/2000/svg" viewBox="0 0 64 64" role="img" aria-label="JavaScript">
  <rect width="64" height="64" rx="18" fill="#F7DF1E"/>
  <path fill="#111" d="M18 47c1.2 2.2 3.2 4 6.6 4 3.9 0 6.4-2 6.4-6.5V22h-6.2v22.1c0 1.8-.7 2.3-1.8 2.3-1.2 0-2-.9-2.8-2.2L18 47Zm16.1-.7c1.8 3.2 5.3 4.8 9.2 4.8 4.8 0 8.7-2.5 8.7-7.2 0-4.4-2.5-6.3-7.1-8.3l-1.2-.5c-2.3-1-3.3-1.6-3.3-3.1 0-1.2.9-2.1 2.5-2.1 1.6 0 2.6.7 3.6 2.5l4.8-3.1c-1.9-3.3-4.5-4.6-8.4-4.6-5.3 0-8.6 3.4-8.6 7.6 0 4.7 2.8 6.8 6.9 8.6l1.2.5c2.5 1.1 4 1.8 4 3.4 0 1.4-1.3 2.4-3.4 2.4-2.5 0-3.9-1.3-5-3.1l-4.9 2.8Z"/>
</svg>
