<svg xmlns="http://www.w3.org/2000/svg" viewBox="0 0 64 64" role="img" aria-label="Tailwind CSS">
  <rect width="64" height="64" rx="18" fill="#082F49"/>
  <path fill="#38BDF8" d="M32 18c-7.5 0-12.2 3.7-14 11.2 2.8-3.7 6-5.1 9.8-4.2 2.1.5 3.6 2.1 5.4 3.8 2.7 2.8 5.9 6 12.9 6 7.5 0 12.2-3.7 14-11.2-2.8 3.7-6 5.1-9.8 4.2-2.1-.5-3.6-2.1-5.4-3.8-2.7-2.8-5.9-6-12.9-6ZM18 29.2c-7.5 0-12.2 3.7-14 11.2 2.8-3.7 6-5.1 9.8-4.2 2.1.5 3.6 2.1 5.4 3.8 2.7 2.8 5.9 6 12.9 6 7.5 0 12.2-3.7 14-11.2-2.8 3.7-6 5.1-9.8 4.2-2.1-.5-3.6-2.1-5.4-3.8-2.7-2.8-5.9-6-12.9-6Z"/>
</svg>
